<mxfile host="app.diagrams.net" agent="Mozilla/5.0 (Windows NT 10.0; Win64; x64; rv:140.0) Gecko/20100101 Firefox/140.0" version="28.2.3">
  <diagram name="DIT" id="0">
    <mxGraphModel dx="3209" dy="725" grid="1" gridSize="10" guides="1" tooltips="1" connect="1" arrows="1" fold="1" page="1" pageScale="1" pageWidth="2000" pageHeight="1500" background="#ffffff" math="0" shadow="0">
      <root>
        <mxCell id="0" />
        <mxCell id="1" parent="0" />
        <mxCell id="2" value="dc=ec2,dc=platanera" style="rounded=1;whiteSpace=wrap;html=1;fillColor=#dae8fc;strokeColor=#6c8ebf;" parent="1" vertex="1">
          <mxGeometry x="560" y="40" width="200" height="40" as="geometry" />
        </mxCell>
        <mxCell id="3" value="ou=Standort1" style="rounded=1;whiteSpace=wrap;html=1;fillColor=#dae8fc;strokeColor=#6c8ebf;" parent="1" vertex="1">
          <mxGeometry x="300" y="140" width="170" height="40" as="geometry" />
        </mxCell>
        <mxCell id="4" value="ou=Standort2" style="rounded=1;whiteSpace=wrap;html=1;fillColor=#dae8fc;strokeColor=#6c8ebf;" parent="1" vertex="1">
          <mxGeometry x="820" y="140" width="170" height="40" as="geometry" />
        </mxCell>
        <mxCell id="5" style="endArrow=block;rounded=0;strokeColor=#000000;" parent="1" source="2" target="3" edge="1">
          <mxGeometry relative="1" as="geometry" />
        </mxCell>
        <mxCell id="6" style="endArrow=block;rounded=0;strokeColor=#000000;" parent="1" source="2" target="4" edge="1">
          <mxGeometry relative="1" as="geometry" />
        </mxCell>
        <mxCell id="7" value="ou=intern" style="rounded=1;whiteSpace=wrap;html=1;fillColor=#dae8fc;strokeColor=#6c8ebf;" parent="1" vertex="1">
          <mxGeometry x="-50" y="240" width="170" height="40" as="geometry" />
        </mxCell>
        <mxCell id="8" style="endArrow=block;rounded=0;strokeColor=#000000;" parent="1" source="3" target="7" edge="1">
          <mxGeometry relative="1" as="geometry" />
        </mxCell>
        <mxCell id="9" value="ou=extern" style="rounded=1;whiteSpace=wrap;html=1;fillColor=#dae8fc;strokeColor=#6c8ebf;" parent="1" vertex="1">
          <mxGeometry x="349" y="240" width="170" height="40" as="geometry" />
        </mxCell>
        <mxCell id="10" style="endArrow=block;rounded=0;strokeColor=#000000;" parent="1" source="3" target="9" edge="1">
          <mxGeometry relative="1" as="geometry" />
        </mxCell>
        <mxCell id="11" value="ou=intern" style="rounded=1;whiteSpace=wrap;html=1;fillColor=#dae8fc;strokeColor=#6c8ebf;" parent="1" vertex="1">
          <mxGeometry x="700" y="240" width="170" height="40" as="geometry" />
        </mxCell>
        <mxCell id="12" style="endArrow=block;rounded=0;strokeColor=#000000;" parent="1" source="4" target="11" edge="1">
          <mxGeometry relative="1" as="geometry" />
        </mxCell>
        <mxCell id="13" value="ou=extern" style="rounded=1;whiteSpace=wrap;html=1;fillColor=#dae8fc;strokeColor=#6c8ebf;" parent="1" vertex="1">
          <mxGeometry x="1053" y="240" width="170" height="40" as="geometry" />
        </mxCell>
        <mxCell id="14" style="endArrow=block;rounded=0;strokeColor=#000000;" parent="1" source="4" target="13" edge="1">
          <mxGeometry relative="1" as="geometry" />
        </mxCell>
        <mxCell id="15" value="ou=GL" style="rounded=1;whiteSpace=wrap;html=1;fillColor=#dae8fc;strokeColor=#6c8ebf;" parent="1" vertex="1">
          <mxGeometry x="-50" y="340" width="190" height="40" as="geometry" />
        </mxCell>
        <mxCell id="16" style="endArrow=block;rounded=0;strokeColor=#000000;" parent="1" source="7" target="15" edge="1">
          <mxGeometry relative="1" as="geometry" />
        </mxCell>
        <mxCell id="17" value="ou=Benutzer" style="rounded=1;whiteSpace=wrap;html=1;fillColor=#d5e8d4;strokeColor=#82b366;" parent="1" vertex="1">
          <mxGeometry x="-140" y="390" width="140" height="26" as="geometry" />
        </mxCell>
        <mxCell id="18" value="ou=Computer" style="rounded=1;whiteSpace=wrap;html=1;fillColor=#f8cecc;strokeColor=#b85450;" parent="1" vertex="1">
          <mxGeometry x="70" y="390" width="140" height="26" as="geometry" />
        </mxCell>
        <mxCell id="19" style="endArrow=block;rounded=0;strokeColor=#000000;" parent="1" source="15" target="17" edge="1">
          <mxGeometry relative="1" as="geometry" />
        </mxCell>
        <mxCell id="20" style="endArrow=block;rounded=0;strokeColor=#000000;" parent="1" source="15" target="18" edge="1">
          <mxGeometry relative="1" as="geometry" />
        </mxCell>
        <mxCell id="21" value="ou=Sekretariat" style="rounded=1;whiteSpace=wrap;html=1;fillColor=#dae8fc;strokeColor=#6c8ebf;" parent="1" vertex="1">
          <mxGeometry x="-50" y="440" width="190" height="40" as="geometry" />
        </mxCell>
        <mxCell id="22" style="endArrow=block;rounded=0;strokeColor=#000000;" parent="1" source="7" target="21" edge="1">
          <mxGeometry relative="1" as="geometry" />
        </mxCell>
        <mxCell id="23" value="ou=Benutzer" style="rounded=1;whiteSpace=wrap;html=1;fillColor=#d5e8d4;strokeColor=#82b366;" parent="1" vertex="1">
          <mxGeometry x="-140" y="490" width="140" height="26" as="geometry" />
        </mxCell>
        <mxCell id="24" value="ou=Computer" style="rounded=1;whiteSpace=wrap;html=1;fillColor=#f8cecc;strokeColor=#b85450;" parent="1" vertex="1">
          <mxGeometry x="70" y="490" width="140" height="26" as="geometry" />
        </mxCell>
        <mxCell id="25" style="endArrow=block;rounded=0;strokeColor=#000000;" parent="1" source="21" target="23" edge="1">
          <mxGeometry relative="1" as="geometry" />
        </mxCell>
        <mxCell id="26" style="endArrow=block;rounded=0;strokeColor=#000000;" parent="1" source="21" target="24" edge="1">
          <mxGeometry relative="1" as="geometry" />
        </mxCell>
        <mxCell id="27" value="ou=Buchhaltung" style="rounded=1;whiteSpace=wrap;html=1;fillColor=#dae8fc;strokeColor=#6c8ebf;" parent="1" vertex="1">
          <mxGeometry x="-50" y="540" width="190" height="40" as="geometry" />
        </mxCell>
        <mxCell id="28" style="endArrow=block;rounded=0;strokeColor=#000000;" parent="1" source="7" target="27" edge="1">
          <mxGeometry relative="1" as="geometry" />
        </mxCell>
        <mxCell id="29" value="ou=Benutzer" style="rounded=1;whiteSpace=wrap;html=1;fillColor=#d5e8d4;strokeColor=#82b366;" parent="1" vertex="1">
          <mxGeometry x="-140" y="590" width="140" height="26" as="geometry" />
        </mxCell>
        <mxCell id="30" value="ou=Computer" style="rounded=1;whiteSpace=wrap;html=1;fillColor=#f8cecc;strokeColor=#b85450;" parent="1" vertex="1">
          <mxGeometry x="70" y="590" width="140" height="26" as="geometry" />
        </mxCell>
        <mxCell id="31" style="endArrow=block;rounded=0;strokeColor=#000000;" parent="1" source="27" target="29" edge="1">
          <mxGeometry relative="1" as="geometry" />
        </mxCell>
        <mxCell id="32" style="endArrow=block;rounded=0;strokeColor=#000000;" parent="1" source="27" target="30" edge="1">
          <mxGeometry relative="1" as="geometry" />
        </mxCell>
        <mxCell id="33" value="ou=Informatik" style="rounded=1;whiteSpace=wrap;html=1;fillColor=#dae8fc;strokeColor=#6c8ebf;" parent="1" vertex="1">
          <mxGeometry x="-50" y="640" width="190" height="40" as="geometry" />
        </mxCell>
        <mxCell id="34" style="endArrow=block;rounded=0;strokeColor=#000000;" parent="1" source="7" target="33" edge="1">
          <mxGeometry relative="1" as="geometry" />
        </mxCell>
        <mxCell id="35" value="ou=Benutzer" style="rounded=1;whiteSpace=wrap;html=1;fillColor=#d5e8d4;strokeColor=#82b366;" parent="1" vertex="1">
          <mxGeometry x="-140" y="690" width="140" height="26" as="geometry" />
        </mxCell>
        <mxCell id="36" value="ou=Computer" style="rounded=1;whiteSpace=wrap;html=1;fillColor=#f8cecc;strokeColor=#b85450;" parent="1" vertex="1">
          <mxGeometry x="70" y="690" width="140" height="26" as="geometry" />
        </mxCell>
        <mxCell id="37" style="endArrow=block;rounded=0;strokeColor=#000000;" parent="1" source="33" target="35" edge="1">
          <mxGeometry relative="1" as="geometry" />
        </mxCell>
        <mxCell id="38" style="endArrow=block;rounded=0;strokeColor=#000000;" parent="1" source="33" target="36" edge="1">
          <mxGeometry relative="1" as="geometry" />
        </mxCell>
        <mxCell id="39" value="ou=Aussendienst" style="rounded=1;whiteSpace=wrap;html=1;fillColor=#dae8fc;strokeColor=#6c8ebf;" parent="1" vertex="1">
          <mxGeometry x="349" y="340" width="190" height="40" as="geometry" />
        </mxCell>
        <mxCell id="40" style="endArrow=block;rounded=0;strokeColor=#000000;" parent="1" source="9" target="39" edge="1">
          <mxGeometry relative="1" as="geometry" />
        </mxCell>
        <mxCell id="41" value="ou=Benutzer" style="rounded=1;whiteSpace=wrap;html=1;fillColor=#d5e8d4;strokeColor=#82b366;" parent="1" vertex="1">
          <mxGeometry x="259" y="390" width="140" height="26" as="geometry" />
        </mxCell>
        <mxCell id="42" value="ou=Computer" style="rounded=1;whiteSpace=wrap;html=1;fillColor=#f8cecc;strokeColor=#b85450;" parent="1" vertex="1">
          <mxGeometry x="460" y="390" width="140" height="26" as="geometry" />
        </mxCell>
        <mxCell id="43" style="endArrow=block;rounded=0;strokeColor=#000000;" parent="1" source="39" target="41" edge="1">
          <mxGeometry relative="1" as="geometry" />
        </mxCell>
        <mxCell id="44" style="endArrow=block;rounded=0;strokeColor=#000000;" parent="1" source="39" edge="1">
          <mxGeometry relative="1" as="geometry">
            <mxPoint x="489.348837209302" y="390" as="targetPoint" />
          </mxGeometry>
        </mxCell>
        <mxCell id="45" value="ou=Promoter" style="rounded=1;whiteSpace=wrap;html=1;fillColor=#dae8fc;strokeColor=#6c8ebf;" parent="1" vertex="1">
          <mxGeometry x="349" y="440" width="190" height="40" as="geometry" />
        </mxCell>
        <mxCell id="46" style="endArrow=block;rounded=0;strokeColor=#000000;" parent="1" source="9" target="45" edge="1">
          <mxGeometry relative="1" as="geometry" />
        </mxCell>
        <mxCell id="47" value="ou=Benutzer" style="rounded=1;whiteSpace=wrap;html=1;fillColor=#d5e8d4;strokeColor=#82b366;" parent="1" vertex="1">
          <mxGeometry x="259" y="490" width="140" height="26" as="geometry" />
        </mxCell>
        <mxCell id="48" value="ou=Computer" style="rounded=1;whiteSpace=wrap;html=1;fillColor=#f8cecc;strokeColor=#b85450;" parent="1" vertex="1">
          <mxGeometry x="460" y="490" width="140" height="26" as="geometry" />
        </mxCell>
        <mxCell id="49" style="endArrow=block;rounded=0;strokeColor=#000000;" parent="1" source="45" target="47" edge="1">
          <mxGeometry relative="1" as="geometry" />
        </mxCell>
        <mxCell id="50" style="endArrow=block;rounded=0;strokeColor=#000000;" parent="1" source="45" edge="1">
          <mxGeometry relative="1" as="geometry">
            <mxPoint x="489.348837209302" y="490" as="targetPoint" />
          </mxGeometry>
        </mxCell>
        <mxCell id="51" value="ou=Partner" style="rounded=1;whiteSpace=wrap;html=1;fillColor=#dae8fc;strokeColor=#6c8ebf;" parent="1" vertex="1">
          <mxGeometry x="349" y="540" width="190" height="40" as="geometry" />
        </mxCell>
        <mxCell id="52" style="endArrow=block;rounded=0;strokeColor=#000000;" parent="1" source="9" target="51" edge="1">
          <mxGeometry relative="1" as="geometry" />
        </mxCell>
        <mxCell id="53" value="ou=Benutzer" style="rounded=1;whiteSpace=wrap;html=1;fillColor=#d5e8d4;strokeColor=#82b366;" parent="1" vertex="1">
          <mxGeometry x="259" y="590" width="140" height="26" as="geometry" />
        </mxCell>
        <mxCell id="54" value="ou=Computer" style="rounded=1;whiteSpace=wrap;html=1;fillColor=#f8cecc;strokeColor=#b85450;" parent="1" vertex="1">
          <mxGeometry x="460" y="590" width="140" height="26" as="geometry" />
        </mxCell>
        <mxCell id="55" style="endArrow=block;rounded=0;strokeColor=#000000;" parent="1" source="51" target="53" edge="1">
          <mxGeometry relative="1" as="geometry" />
        </mxCell>
        <mxCell id="56" style="endArrow=block;rounded=0;strokeColor=#000000;" parent="1" source="51" edge="1">
          <mxGeometry relative="1" as="geometry">
            <mxPoint x="489.348837209302" y="590" as="targetPoint" />
          </mxGeometry>
        </mxCell>
        <mxCell id="57" value="ou=GL" style="rounded=1;whiteSpace=wrap;html=1;fillColor=#dae8fc;strokeColor=#6c8ebf;" parent="1" vertex="1">
          <mxGeometry x="700" y="340" width="190" height="40" as="geometry" />
        </mxCell>
        <mxCell id="58" style="endArrow=block;rounded=0;strokeColor=#000000;" parent="1" source="11" target="57" edge="1">
          <mxGeometry relative="1" as="geometry" />
        </mxCell>
        <mxCell id="59" value="ou=Benutzer" style="rounded=1;whiteSpace=wrap;html=1;fillColor=#d5e8d4;strokeColor=#82b366;" parent="1" vertex="1">
          <mxGeometry x="610" y="390" width="140" height="26" as="geometry" />
        </mxCell>
        <mxCell id="60" value="ou=Computer" style="rounded=1;whiteSpace=wrap;html=1;fillColor=#f8cecc;strokeColor=#b85450;" parent="1" vertex="1">
          <mxGeometry x="814" y="390" width="140" height="26" as="geometry" />
        </mxCell>
        <mxCell id="61" style="endArrow=block;rounded=0;strokeColor=#000000;" parent="1" source="57" target="59" edge="1">
          <mxGeometry relative="1" as="geometry" />
        </mxCell>
        <mxCell id="62" style="endArrow=block;rounded=0;strokeColor=#000000;" parent="1" source="57" target="60" edge="1">
          <mxGeometry relative="1" as="geometry" />
        </mxCell>
        <mxCell id="63" value="ou=Informatik" style="rounded=1;whiteSpace=wrap;html=1;fillColor=#dae8fc;strokeColor=#6c8ebf;" parent="1" vertex="1">
          <mxGeometry x="700" y="440" width="190" height="40" as="geometry" />
        </mxCell>
        <mxCell id="64" style="endArrow=block;rounded=0;strokeColor=#000000;" parent="1" source="11" target="63" edge="1">
          <mxGeometry relative="1" as="geometry" />
        </mxCell>
        <mxCell id="65" value="ou=Benutzer" style="rounded=1;whiteSpace=wrap;html=1;fillColor=#d5e8d4;strokeColor=#82b366;" parent="1" vertex="1">
          <mxGeometry x="610" y="490" width="140" height="26" as="geometry" />
        </mxCell>
        <mxCell id="66" value="ou=Computer" style="rounded=1;whiteSpace=wrap;html=1;fillColor=#f8cecc;strokeColor=#b85450;" parent="1" vertex="1">
          <mxGeometry x="814" y="490" width="140" height="26" as="geometry" />
        </mxCell>
        <mxCell id="67" style="endArrow=block;rounded=0;strokeColor=#000000;" parent="1" source="63" target="65" edge="1">
          <mxGeometry relative="1" as="geometry" />
        </mxCell>
        <mxCell id="68" style="endArrow=block;rounded=0;strokeColor=#000000;" parent="1" source="63" target="66" edge="1">
          <mxGeometry relative="1" as="geometry" />
        </mxCell>
        <mxCell id="69" value="ou=Aussendienst" style="rounded=1;whiteSpace=wrap;html=1;fillColor=#dae8fc;strokeColor=#6c8ebf;" parent="1" vertex="1">
          <mxGeometry x="1053" y="340" width="190" height="40" as="geometry" />
        </mxCell>
        <mxCell id="70" style="endArrow=block;rounded=0;strokeColor=#000000;" parent="1" source="13" target="69" edge="1">
          <mxGeometry relative="1" as="geometry" />
        </mxCell>
        <mxCell id="71" value="ou=Benutzer" style="rounded=1;whiteSpace=wrap;html=1;fillColor=#d5e8d4;strokeColor=#82b366;" parent="1" vertex="1">
          <mxGeometry x="963" y="390" width="140" height="26" as="geometry" />
        </mxCell>
        <mxCell id="72" value="ou=Computer" style="rounded=1;whiteSpace=wrap;html=1;fillColor=#f8cecc;strokeColor=#b85450;" parent="1" vertex="1">
          <mxGeometry x="1184" y="390" width="140" height="26" as="geometry" />
        </mxCell>
        <mxCell id="73" style="endArrow=block;rounded=0;strokeColor=#000000;" parent="1" source="69" target="71" edge="1">
          <mxGeometry relative="1" as="geometry" />
        </mxCell>
        <mxCell id="74" style="endArrow=block;rounded=0;strokeColor=#000000;" parent="1" source="69" target="72" edge="1">
          <mxGeometry relative="1" as="geometry" />
        </mxCell>
        <mxCell id="75" value="ou=Promoter" style="rounded=1;whiteSpace=wrap;html=1;fillColor=#dae8fc;strokeColor=#6c8ebf;" parent="1" vertex="1">
          <mxGeometry x="1053" y="440" width="190" height="40" as="geometry" />
        </mxCell>
        <mxCell id="76" style="endArrow=block;rounded=0;strokeColor=#000000;" parent="1" source="13" target="75" edge="1">
          <mxGeometry relative="1" as="geometry" />
        </mxCell>
        <mxCell id="77" value="ou=Benutzer" style="rounded=1;whiteSpace=wrap;html=1;fillColor=#d5e8d4;strokeColor=#82b366;" parent="1" vertex="1">
          <mxGeometry x="963" y="490" width="140" height="26" as="geometry" />
        </mxCell>
        <mxCell id="78" value="ou=Computer" style="rounded=1;whiteSpace=wrap;html=1;fillColor=#f8cecc;strokeColor=#b85450;" parent="1" vertex="1">
          <mxGeometry x="1184" y="490" width="140" height="26" as="geometry" />
        </mxCell>
        <mxCell id="79" style="endArrow=block;rounded=0;strokeColor=#000000;" parent="1" source="75" target="77" edge="1">
          <mxGeometry relative="1" as="geometry" />
        </mxCell>
        <mxCell id="80" style="endArrow=block;rounded=0;strokeColor=#000000;" parent="1" source="75" target="78" edge="1">
          <mxGeometry relative="1" as="geometry" />
        </mxCell>
        <mxCell id="81" value="ou=Messemearbeiter" style="rounded=1;whiteSpace=wrap;html=1;fillColor=#dae8fc;strokeColor=#6c8ebf;" parent="1" vertex="1">
          <mxGeometry x="1053" y="540" width="190" height="40" as="geometry" />
        </mxCell>
        <mxCell id="82" style="endArrow=block;rounded=0;strokeColor=#000000;" parent="1" source="13" target="81" edge="1">
          <mxGeometry relative="1" as="geometry" />
        </mxCell>
        <mxCell id="83" value="ou=Benutzer" style="rounded=1;whiteSpace=wrap;html=1;fillColor=#d5e8d4;strokeColor=#82b366;" parent="1" vertex="1">
          <mxGeometry x="963" y="590" width="140" height="26" as="geometry" />
        </mxCell>
        <mxCell id="84" value="ou=Computer" style="rounded=1;whiteSpace=wrap;html=1;fillColor=#f8cecc;strokeColor=#b85450;" parent="1" vertex="1">
          <mxGeometry x="1184" y="590" width="140" height="26" as="geometry" />
        </mxCell>
        <mxCell id="85" style="endArrow=block;rounded=0;strokeColor=#000000;" parent="1" source="81" target="83" edge="1">
          <mxGeometry relative="1" as="geometry" />
        </mxCell>
        <mxCell id="86" style="endArrow=block;rounded=0;strokeColor=#000000;" parent="1" source="81" target="84" edge="1">
          <mxGeometry relative="1" as="geometry" />
        </mxCell>
        <mxCell id="87" value="ou=Partner" style="rounded=1;whiteSpace=wrap;html=1;fillColor=#dae8fc;strokeColor=#6c8ebf;" parent="1" vertex="1">
          <mxGeometry x="1053" y="640" width="190" height="40" as="geometry" />
        </mxCell>
        <mxCell id="88" style="endArrow=block;rounded=0;strokeColor=#000000;" parent="1" source="13" target="87" edge="1">
          <mxGeometry relative="1" as="geometry" />
        </mxCell>
        <mxCell id="89" value="ou=Benutzer" style="rounded=1;whiteSpace=wrap;html=1;fillColor=#d5e8d4;strokeColor=#82b366;" parent="1" vertex="1">
          <mxGeometry x="963" y="690" width="140" height="26" as="geometry" />
        </mxCell>
        <mxCell id="90" value="ou=Computer" style="rounded=1;whiteSpace=wrap;html=1;fillColor=#f8cecc;strokeColor=#b85450;" parent="1" vertex="1">
          <mxGeometry x="1184" y="690" width="140" height="26" as="geometry" />
        </mxCell>
        <mxCell id="91" style="endArrow=block;rounded=0;strokeColor=#000000;" parent="1" source="87" target="89" edge="1">
          <mxGeometry relative="1" as="geometry" />
        </mxCell>
        <mxCell id="92" style="endArrow=block;rounded=0;strokeColor=#000000;" parent="1" source="87" target="90" edge="1">
          <mxGeometry relative="1" as="geometry" />
        </mxCell>
      </root>
    </mxGraphModel>
  </diagram>
</mxfile>
